<?xml version="1.0" encoding="UTF-8" standalone="no"?>
<!-- Created with Inkscape (http://www.inkscape.org/) -->

<svg
   xmlns:dc="http://purl.org/dc/elements/1.1/"
   xmlns:cc="http://creativecommons.org/ns#"
   xmlns:rdf="http://www.w3.org/1999/02/22-rdf-syntax-ns#"
   xmlns:svg="http://www.w3.org/2000/svg"
   xmlns="http://www.w3.org/2000/svg"
   xmlns:sodipodi="http://sodipodi.sourceforge.net/DTD/sodipodi-0.dtd"
   xmlns:inkscape="http://www.inkscape.org/namespaces/inkscape"
   width="200"
   height="200"
   viewBox="0 0 200 200"
   id="svg2"
   version="1.1"
   inkscape:version="0.91 r13725"
   sodipodi:docname="pym_logo.svg">
  <defs
     id="defs4" />
  <sodipodi:namedview
     id="base"
     pagecolor="#ffffff"
     bordercolor="#666666"
     borderopacity="1.0"
     inkscape:pageopacity="0.0"
     inkscape:pageshadow="2"
     inkscape:zoom="2.0875"
     inkscape:cx="100"
     inkscape:cy="100"
     inkscape:document-units="px"
     inkscape:current-layer="layer1"
     showgrid="false"
     units="px"
     inkscape:window-width="1920"
     inkscape:window-height="1048"
     inkscape:window-x="0"
     inkscape:window-y="0"
     inkscape:window-maximized="1" />
  <metadata
     id="metadata7">
    <rdf:RDF>
      <cc:Work
         rdf:about="">
        <dc:format>image/svg+xml</dc:format>
        <dc:type
           rdf:resource="http://purl.org/dc/dcmitype/StillImage" />
        <dc:title></dc:title>
      </cc:Work>
    </rdf:RDF>
  </metadata>
  <g
     inkscape:label="Layer 1"
     inkscape:groupmode="layer"
     id="layer1"
     transform="translate(0,-852.36216)">
    <path
       style="fill:#6f8a91;fill-rule:evenodd;stroke:none;stroke-width:1;stroke-linecap:butt;stroke-linejoin:miter;stroke-miterlimit:4;stroke-dasharray:none;stroke-opacity:1"
       d="m 133.89258,880.01888 c -0.23952,-0.95808 -17.24575,45.51017 -18.44336,49.58203 -1.1976,4.07186 -8.62305,-32.57617 -8.62305,-32.57617 L 89.580078,943.85091 65.628906,882.89388 15,1024.7201 l 40.410156,0 0,-31.95122 c 0,-5.3091 -0.215369,-8.39271 -0.287109,-10.83203 l 4.949219,0 0.287109,4.375 0.144531,0 c 1.865362,-3.65898 4.663806,-4.94922 7.31836,-4.94922 6.098298,0 10.042968,6.38413 10.042968,17.86328 0,12.91409 -5.308601,18.00979 -10.689453,18.00979 -3.300255,0 -5.164975,-2.0102 -6.097656,-3.9473 l -0.144531,0 0,11.4317 22.324218,0 c -0.0033,-0.037 -0.01078,-0.075 -0.01367,-0.1114 -0.129632,-1.6459 0.328423,-3.1433 0.904297,-4.8789 0.575871,-1.7357 1.344812,-3.598 2.117187,-5.334 1.293098,-2.9064 2.217533,-4.6417 2.611328,-5.3984 l -9.023437,-19.07032 0.236328,-0.82422 c 0,0 0.225296,-1.21996 0.08594,-2.76367 -0.360571,0.11993 -0.19241,0.11052 -0.671875,0.25781 l -1.332031,-4.33789 c 0.931551,-0.28616 1.310844,-0.80994 2.935547,-0.94922 0.812351,-0.0696 2.161851,0.50168 2.691406,1.25782 0.529555,0.75614 0.649725,1.393 0.796875,2.15234 0.425153,2.19402 0.208928,3.747 0.02734,4.67578 l 7.738281,16.35747 c 0.210662,-0.634 0.396823,-1.1953 0.666016,-2 0.860659,-2.573 1.980215,-5.89978 3.089844,-9.19145 2.219255,-6.58334 4.400392,-13.0293 4.400392,-13.0293 l 4.29883,1.45508 c 0,0 -2.18036,6.44554 -4.39844,13.02539 -1.109046,3.28993 -2.227438,6.61318 -3.085939,9.17968 -0.42925,1.2833 -0.793631,2.3764 -1.058593,3.1797 -0.205557,0.6232 -0.290334,0.8951 -0.339844,1.0469 -0.01291,0.096 -0.03758,0.2659 -0.02539,0.4394 0.02741,0.3901 0.08408,0.9681 0.154297,1.6621 0.140442,1.3879 0.334789,3.2552 0.460938,5.3321 0.148944,2.4522 0.219213,5.1864 -0.03516,7.8672 l 88.511719,0 c 0,0 -50.86789,-143.74313 -51.10742,-144.70122 z m -12.8125,101.34375 c 3.22851,0 6.02499,1.50561 7.3164,5.23633 l 0.14454,0 c 0.93268,-1.72187 2.15143,-3.08438 3.37109,-3.94532 1.43489,-0.86093 3.01497,-1.29101 4.80859,-1.29101 4.73515,0 8.39258,3.37124 8.39258,12.26758 l 0,23.03129 -5.52344,0 0,-21.81059 c 0,-4.51992 -0.64544,-8.89648 -4.80664,-8.89648 -2.29583,0 -4.30456,1.93607 -5.09375,5.23632 -0.21523,0.86094 -0.21679,1.93803 -0.21679,3.08594 l 0,22.38481 -5.52344,0 0,-22.81645 c 0,-3.80246 -0.64494,-7.89062 -4.73438,-7.89062 -2.29583,0 -4.52031,1.93724 -5.16601,5.66796 -0.14344,0.86094 -0.21485,1.86524 -0.21485,2.94141 l 0,22.0977 -5.52539,0 0,-25.75786 c 0,-4.08944 -0.21541,-6.16875 -0.28711,-8.96679 l 4.87891,0 0.28711,4.23242 0.14258,0 c 1.50664,-2.79804 4.09102,-4.80664 7.75,-4.80664 z M 66.242188,986.097 c -2.511064,0 -4.806771,3.15769 -5.09375,6.31446 -0.215235,0.86094 -0.214844,1.72161 -0.214844,2.65429 l 0,8.89645 c 0,1.0045 0.07187,2.0083 0.287109,2.8692 1.07617,4.9504 3.514847,5.8125 5.021485,5.8125 4.591659,0 6.099609,-6.3142 6.099609,-13.27346 0,-7.24622 -1.723184,-13.27344 -6.099609,-13.27344 z m 25.445312,27.5059 c -0.522893,1.063 -0.64684,1.2259 -1.275391,2.6386 -0.735338,1.6528 -1.457278,3.4118 -1.957031,4.918 -0.499753,1.5063 -0.703007,2.8702 -0.685547,3.0918 0.0099,0.126 0.04027,0.2856 0.08594,0.4688 l 4.046875,0 c 0.25802,-2.4211 0.240557,-5.1426 0.0918,-7.5918 -0.08146,-1.3412 -0.198256,-2.4134 -0.306641,-3.5254 z"
       id="path4138"
       inkscape:connector-curvature="0" />
  </g>
</svg>
